<?xml version="1.0" encoding="utf-8"?>
<!-- Generator: Adobe Illustrator 16.0.0, SVG Export Plug-In . SVG Version: 6.00 Build 0)  -->
<!DOCTYPE svg PUBLIC "-//W3C//DTD SVG 1.1//EN" "http://www.w3.org/Graphics/SVG/1.1/DTD/svg11.dtd">
<svg version="1.1" id="Layer_1" xmlns="http://www.w3.org/2000/svg" xmlns:xlink="http://www.w3.org/1999/xlink" x="0px" y="0px"
	 width="1554.156px" height="450.045px" viewBox="0 0 1554.156 450.045" enable-background="new 0 0 1554.156 450.045"
	 xml:space="preserve">
<g>
	<defs>
		<rect id="SVGID_1_" x="-121.742" y="-76.797" width="1800" height="600"/>
	</defs>
	<clipPath id="SVGID_2_">
		<use xlink:href="#SVGID_1_"  overflow="visible"/>
	</clipPath>
	<g clip-path="url(#SVGID_2_)">
		<defs>
			<rect id="SVGID_3_" x="-121.742" y="-76.797" width="1800" height="600"/>
		</defs>
		<clipPath id="SVGID_4_">
			<use xlink:href="#SVGID_3_"  overflow="visible"/>
		</clipPath>
		<g opacity="0.8" clip-path="url(#SVGID_4_)">
			<g>
				<defs>
					<rect id="SVGID_5_" x="140.462" y="3.197" width="218.381" height="219.107"/>
				</defs>
				<clipPath id="SVGID_6_">
					<use xlink:href="#SVGID_5_"  overflow="visible"/>
				</clipPath>
			</g>
		</g>
		<g opacity="0.8" clip-path="url(#SVGID_4_)">
			<g>
				<defs>
					<rect id="SVGID_7_" x="96.496" y="41.338" width="136.737" height="186.728"/>
				</defs>
				<clipPath id="SVGID_8_">
					<use xlink:href="#SVGID_7_"  overflow="visible"/>
				</clipPath>
			</g>
		</g>
		<g opacity="0.8" clip-path="url(#SVGID_4_)">
			<g>
				<defs>
					<rect id="SVGID_9_" x="233.233" y="228.074" width="136.737" height="186.728"/>
				</defs>
				<clipPath id="SVGID_10_">
					<use xlink:href="#SVGID_9_"  overflow="visible"/>
				</clipPath>
			</g>
		</g>
		<g opacity="0.8" clip-path="url(#SVGID_4_)">
			<g>
				<defs>
					<rect id="SVGID_11_" x="46.334" y="227.575" width="186.728" height="136.737"/>
				</defs>
				<clipPath id="SVGID_12_">
					<use xlink:href="#SVGID_11_"  overflow="visible"/>
				</clipPath>
			</g>
		</g>
		<g opacity="0.8" clip-path="url(#SVGID_4_)">
			<g>
				<defs>
					<rect id="SVGID_13_" x="232.828" y="91.818" width="186.727" height="136.736"/>
				</defs>
				<clipPath id="SVGID_14_">
					<use xlink:href="#SVGID_13_"  overflow="visible"/>
				</clipPath>
			</g>
		</g>
		<g opacity="0.8" clip-path="url(#SVGID_4_)">
			<g>
				<defs>
					<rect id="SVGID_15_" x="107.458" y="232.279" width="218.381" height="219.106"/>
				</defs>
				<clipPath id="SVGID_16_">
					<use xlink:href="#SVGID_15_"  overflow="visible"/>
				</clipPath>
			</g>
		</g>
		<g opacity="0.8" clip-path="url(#SVGID_4_)">
			<g>
				<defs>
					<rect id="SVGID_17_" x="9.283" y="101.129" width="219.107" height="218.38"/>
				</defs>
				<clipPath id="SVGID_18_">
					<use xlink:href="#SVGID_17_"  overflow="visible"/>
				</clipPath>
			</g>
		</g>
		<g opacity="0.8" clip-path="url(#SVGID_4_)">
			<g>
				<defs>
					<rect id="SVGID_19_" x="237.506" y="134.663" width="219.107" height="218.381"/>
				</defs>
				<clipPath id="SVGID_20_">
					<use xlink:href="#SVGID_19_"  overflow="visible"/>
				</clipPath>
			</g>
		</g>
	</g>
	<g clip-path="url(#SVGID_2_)">
		<defs>
			<rect id="SVGID_21_" x="-121.742" y="-76.797" width="1800" height="600"/>
		</defs>
		<clipPath id="SVGID_22_">
			<use xlink:href="#SVGID_21_"  overflow="visible"/>
		</clipPath>
		<g opacity="0.8" clip-path="url(#SVGID_22_)">
			<g>
				<defs>
					<rect id="SVGID_23_" x="131.962" y="-0.303" width="219.381" height="220.107"/>
				</defs>
				<clipPath id="SVGID_24_">
					<use xlink:href="#SVGID_23_"  overflow="visible"/>
				</clipPath>
				<path clip-path="url(#SVGID_24_)" fill="#ED1C24" d="M216.583,215.89l-80.532-78.895c-4.715-4.618-4.793-12.254-0.175-16.969
					L249.753,3.785c4.619-4.715,12.256-4.793,16.97-0.175l80.532,78.895c4.715,4.618,4.793,12.255,0.174,16.969L233.551,215.716
					C228.934,220.431,221.296,220.509,216.583,215.89"/>
				<path clip-path="url(#SVGID_24_)" fill="none" stroke="#FFFFFF" stroke-miterlimit="10" d="M216.583,215.89l-80.532-78.895
					c-4.715-4.618-4.793-12.254-0.175-16.969L249.753,3.785c4.619-4.715,12.256-4.793,16.97-0.175l80.532,78.895
					c4.715,4.618,4.793,12.255,0.174,16.969L233.551,215.716C228.934,220.431,221.296,220.509,216.583,215.89z"/>
			</g>
		</g>
		<g opacity="0.8" clip-path="url(#SVGID_22_)">
			<g>
				<defs>
					<rect id="SVGID_25_" x="87.996" y="37.838" width="137.737" height="187.728"/>
				</defs>
				<clipPath id="SVGID_26_">
					<use xlink:href="#SVGID_25_"  overflow="visible"/>
				</clipPath>
				<path clip-path="url(#SVGID_26_)" fill="#EC008C" d="M213.233,225.065H100.497c-6.6,0-12-5.4-12-12V50.337c0-6.6,5.4-12,12-12
					h112.737c6.6,0,12,5.4,12,12v162.728C225.233,219.666,219.833,225.065,213.233,225.065"/>
				<path clip-path="url(#SVGID_26_)" fill="none" stroke="#FFFFFF" stroke-miterlimit="10" d="M213.233,225.065H100.497
					c-6.6,0-12-5.4-12-12V50.337c0-6.6,5.4-12,12-12h112.737c6.6,0,12,5.4,12,12v162.728
					C225.233,219.666,219.833,225.065,213.233,225.065z"/>
			</g>
		</g>
		<g opacity="0.8" clip-path="url(#SVGID_22_)">
			<g>
				<defs>
					<rect id="SVGID_27_" x="224.733" y="224.574" width="137.737" height="187.728"/>
				</defs>
				<clipPath id="SVGID_28_">
					<use xlink:href="#SVGID_27_"  overflow="visible"/>
				</clipPath>
				<path clip-path="url(#SVGID_28_)" fill="#00A651" d="M349.971,411.802H237.234c-6.6,0-12-5.399-12-12V237.074
					c0-6.6,5.4-12,12-12h112.737c6.6,0,12,5.4,12,12v162.728C361.971,406.402,356.571,411.802,349.971,411.802"/>
				<path clip-path="url(#SVGID_28_)" fill="none" stroke="#FFFFFF" stroke-miterlimit="10" d="M349.971,411.802H237.234
					c-6.6,0-12-5.399-12-12V237.074c0-6.6,5.4-12,12-12h112.737c6.6,0,12,5.4,12,12v162.728
					C361.971,406.402,356.571,411.802,349.971,411.802z"/>
			</g>
		</g>
		<g opacity="0.8" clip-path="url(#SVGID_22_)">
			<g>
				<defs>
					<rect id="SVGID_29_" x="37.834" y="224.075" width="187.728" height="137.737"/>
				</defs>
				<clipPath id="SVGID_30_">
					<use xlink:href="#SVGID_29_"  overflow="visible"/>
				</clipPath>
				<path clip-path="url(#SVGID_30_)" fill="#21409A" d="M225.062,236.575v112.737c0,6.6-5.4,12-12,12H50.334c-6.6,0-12-5.4-12-12
					V236.575c0-6.601,5.4-12,12-12h162.728C219.662,224.575,225.062,229.975,225.062,236.575"/>
				<path clip-path="url(#SVGID_30_)" fill="none" stroke="#FFFFFF" stroke-miterlimit="10" d="M225.062,236.575v112.737
					c0,6.6-5.4,12-12,12H50.334c-6.6,0-12-5.4-12-12V236.575c0-6.601,5.4-12,12-12h162.728
					C219.662,224.575,225.062,229.975,225.062,236.575z"/>
			</g>
		</g>
		<g opacity="0.8" clip-path="url(#SVGID_22_)">
			<g>
				<defs>
					<rect id="SVGID_31_" x="224.328" y="88.318" width="187.727" height="137.736"/>
				</defs>
				<clipPath id="SVGID_32_">
					<use xlink:href="#SVGID_31_"  overflow="visible"/>
				</clipPath>
				<path clip-path="url(#SVGID_32_)" fill="#F7941E" d="M411.556,100.818v112.737c0,6.6-5.4,12.001-12,12.001H236.828
					c-6.599,0-12-5.401-12-12.001V100.818c0-6.6,5.401-12,12-12h162.728C406.156,88.818,411.556,94.218,411.556,100.818"/>
				<path clip-path="url(#SVGID_32_)" fill="none" stroke="#FFFFFF" stroke-miterlimit="10" d="M411.556,100.818v112.737
					c0,6.6-5.4,12.001-12,12.001H236.828c-6.599,0-12-5.401-12-12.001V100.818c0-6.6,5.401-12,12-12h162.728
					C406.156,88.818,411.556,94.218,411.556,100.818z"/>
			</g>
		</g>
		<g opacity="0.8" clip-path="url(#SVGID_22_)">
			<g>
				<defs>
					<rect id="SVGID_33_" x="98.958" y="228.779" width="219.381" height="220.106"/>
				</defs>
				<clipPath id="SVGID_34_">
					<use xlink:href="#SVGID_33_"  overflow="visible"/>
				</clipPath>
				<path clip-path="url(#SVGID_34_)" fill="#00AEEF" d="M183.578,444.972l-80.532-78.895c-4.714-4.618-4.793-12.255-0.174-16.969
					L216.75,232.867c4.619-4.715,12.255-4.793,16.97-0.175l80.531,78.895c4.715,4.618,4.793,12.255,0.175,16.97L200.548,444.798
					C195.929,449.513,188.293,449.591,183.578,444.972"/>
				<path clip-path="url(#SVGID_34_)" fill="none" stroke="#FFFFFF" stroke-miterlimit="10" d="M183.578,444.972l-80.532-78.895
					c-4.714-4.618-4.793-12.255-0.174-16.969L216.75,232.867c4.619-4.715,12.255-4.793,16.97-0.175l80.531,78.895
					c4.715,4.618,4.793,12.255,0.175,16.97L200.548,444.798C195.929,449.513,188.293,449.591,183.578,444.972z"/>
			</g>
		</g>
		<g opacity="0.8" clip-path="url(#SVGID_22_)">
			<g>
				<defs>
					<rect id="SVGID_35_" x="0.783" y="97.629" width="220.107" height="219.38"/>
				</defs>
				<clipPath id="SVGID_36_">
					<use xlink:href="#SVGID_35_"  overflow="visible"/>
				</clipPath>
				<path clip-path="url(#SVGID_36_)" fill="#7F3F98" d="M216.977,232.39l-78.895,80.532c-4.618,4.715-12.254,4.793-16.969,0.174
					L4.872,199.219c-4.715-4.619-4.793-12.256-0.175-16.97l78.895-80.532c4.618-4.715,12.255-4.793,16.969-0.174L216.803,215.42
					C221.518,220.039,221.596,227.675,216.977,232.39"/>
				<path clip-path="url(#SVGID_36_)" fill="none" stroke="#FFFFFF" stroke-miterlimit="10" d="M216.977,232.39l-78.895,80.532
					c-4.618,4.715-12.254,4.793-16.969,0.174L4.872,199.219c-4.715-4.619-4.793-12.256-0.175-16.97l78.895-80.532
					c4.618-4.715,12.255-4.793,16.969-0.174L216.803,215.42C221.518,220.039,221.596,227.675,216.977,232.39z"/>
			</g>
		</g>
		<g opacity="0.8" clip-path="url(#SVGID_22_)">
			<g>
				<defs>
					<rect id="SVGID_37_" x="229.006" y="131.163" width="220.107" height="219.381"/>
				</defs>
				<clipPath id="SVGID_38_">
					<use xlink:href="#SVGID_37_"  overflow="visible"/>
				</clipPath>
				<path clip-path="url(#SVGID_38_)" fill="#FFF200" d="M445.199,265.924l-78.894,80.532c-4.619,4.715-12.255,4.793-16.97,0.174
					L233.094,232.752c-4.715-4.618-4.793-12.255-0.175-16.969l78.895-80.532c4.618-4.715,12.255-4.793,16.969-0.174l116.242,113.877
					C449.74,253.573,449.818,261.209,445.199,265.924"/>
				<path clip-path="url(#SVGID_38_)" fill="none" stroke="#FFFFFF" stroke-miterlimit="10" d="M445.199,265.924l-78.894,80.532
					c-4.619,4.715-12.255,4.793-16.97,0.174L233.094,232.752c-4.715-4.618-4.793-12.255-0.175-16.969l78.895-80.532
					c4.618-4.715,12.255-4.793,16.969-0.174l116.242,113.877C449.74,253.573,449.818,261.209,445.199,265.924z"/>
			</g>
		</g>
		
			<circle clip-path="url(#SVGID_22_)" fill="none" stroke="#FFFFFF" stroke-width="10" stroke-miterlimit="10" cx="224.829" cy="225.065" r="93.94"/>
		<path clip-path="url(#SVGID_22_)" d="M297.632,225.065c0,40.208-32.595,72.804-72.804,72.804s-72.804-32.596-72.804-72.804
			c0-40.209,32.595-72.804,72.804-72.804S297.632,184.856,297.632,225.065"/>
		<path clip-path="url(#SVGID_22_)" fill="#FFFFFF" d="M216.315,192.626c0,14.268-11.566,25.833-25.833,25.833
			c-14.268,0-25.834-11.565-25.834-25.833s11.566-25.834,25.834-25.834C204.749,166.792,216.315,178.358,216.315,192.626"/>
		<path clip-path="url(#SVGID_22_)" fill="#FFFFFF" d="M249.121,240.827c0,3.199-2.593,5.792-5.792,5.792s-5.792-2.593-5.792-5.792
			s2.593-5.792,5.792-5.792S249.121,237.628,249.121,240.827"/>
		<path clip-path="url(#SVGID_22_)" fill="#FFFFFF" d="M284.569,260.733c0,10.214-8.28,18.494-18.495,18.494
			c-10.214,0-18.494-8.28-18.494-18.494c0-10.215,8.28-18.495,18.494-18.495C276.289,242.238,284.569,250.519,284.569,260.733"/>
	</g>
	<g clip-path="url(#SVGID_2_)">
		<path fill="#FFFFFF" d="M626.909,132.118v2.576c-3.707,1.445-8.292,5.528-11.245,15.266l-22.678,73.5
			c-1.382-0.063-2.953-0.125-4.523-0.125c-1.571,0-3.016,0.063-4.397,0.125l-18.972-57.229l-19.098,57.229
			c-1.382-0.063-2.953-0.125-4.523-0.125s-3.015,0.063-4.397,0.125l-28.834-80.536c-2.262-6.219-5.654-8.104-8.104-8.229v-2.576
			c5.088,0.251,12.627,0.377,19.16,0.377c6.848,0,12.438-0.125,15.831-0.377v2.576c-3.33,0.44-4.523,2.325-4.523,5.026
			c0,1.696,0.439,3.644,1.193,5.779l18.658,54.403l13.129-38.258l-6.659-20.04c-1.759-5.34-4.272-6.722-6.973-6.911v-2.576
			c4.711,0.251,11.747,0.377,18.343,0.377c7.539,0,14.449-0.125,18.532-0.377v2.576c-5.779,0.251-8.795,0.88-8.795,4.774
			c0,1.508,0.44,3.455,1.319,6.031l17.652,53.837l12.25-38.949c1.947-6.282,2.89-11.182,2.89-14.951
			c0-7.727-3.958-10.554-11.056-10.743v-2.576c5.779,0.251,10.679,0.377,16.019,0.377
			C620.878,132.495,624.333,132.37,626.909,132.118z"/>
		<path fill="#FFFFFF" d="M684.854,189.976c0,25.505-13.004,35.054-31.536,35.054c-18.469,0-31.473-9.549-31.473-35.054
			c0-25.442,13.003-35.117,31.473-35.117C671.85,154.859,684.854,164.534,684.854,189.976z M641.256,189.976
			c0,23.055,5.088,32.478,12.062,32.478c7.036,0,12.125-9.423,12.125-32.478c0-22.992-5.088-32.541-12.125-32.541
			C646.344,157.435,641.256,166.984,641.256,189.976z"/>
		<path fill="#FFFFFF" d="M744.359,166.732c0,6.345-3.958,10.805-9.988,10.805s-9.612-3.267-9.612-8.292
			c0-4.711,2.45-7.79,5.654-9.925c-0.502-0.188-1.068-0.314-1.696-0.314c-0.565,0-1.193,0.126-1.822,0.314
			c-6.847,1.13-11.685,9.674-11.685,16.584v34.049c0,8.292,3.958,10.554,12.062,10.554v2.701
			c-3.958-0.125-12.313-0.502-20.417-0.502c-7.036,0-14.888,0.377-18.406,0.502v-2.701c5.968,0,8.229-2.073,8.229-9.235V170.69
			c0-7.727-2.01-11.37-8.229-11.37v-2.702c2.701,0.251,5.402,0.44,7.978,0.44c7.162,0,13.381-0.565,18.783-1.822v11.999
			c3.079-6.91,9.298-12.375,17.401-12.375C740.967,154.859,744.359,160.953,744.359,166.732z"/>
		<path fill="#FFFFFF" d="M771.287,211.272c0,7.162,2.261,9.235,8.229,9.235v2.701c-3.266-0.125-10.491-0.502-17.149-0.502
			c-6.722,0-14.386,0.377-17.841,0.502v-2.701c6.031,0,8.229-2.073,8.229-9.235V137.96c0-7.727-2.01-11.37-8.229-11.37v-2.702
			c2.701,0.251,5.403,0.377,7.979,0.377c7.161,0,13.443-0.502,18.783-1.759V211.272z"/>
		<path fill="#FFFFFF" d="M844.247,209.136c0,7.664,2.01,11.308,8.229,11.308v2.701c-2.701-0.251-5.402-0.377-7.979-0.377
			c-7.161,0-13.381,0.502-18.783,1.759v-10.868c-2.952,7.413-8.354,11.371-16.71,11.371c-15.328,0-26.259-10.868-26.259-35.368
			c0-23.307,12.25-34.803,28.771-34.803c5.843,0,10.742,1.382,14.197,4.837V137.96c0-7.727-2.01-11.37-8.229-11.37v-2.702
			c2.701,0.251,5.402,0.377,7.979,0.377c7.225,0,13.443-0.502,18.783-1.759V209.136z M825.714,208.634V162.9
			c-2.324-3.016-5.717-4.334-9.36-4.334c-8.857,0-14.197,10.114-14.135,31.347c-0.063,21.987,4.712,29.526,12.125,29.526
			C819.621,219.439,824.521,215.418,825.714,208.634z"/>
		<path fill="#FFFFFF" d="M963.404,212.403c2.388,6.156,5.654,8.104,8.104,8.229v2.576c-5.089-0.251-12.502-0.377-19.537-0.377
			c-7.979,0-15.328,0.125-19.601,0.377v-2.576c6.157-0.251,9.047-1.193,9.047-4.711c0-1.508-0.503-3.518-1.508-6.094l-7.728-21.107
			h-27.955l-3.455,8.92c-2.449,6.282-3.518,10.868-3.518,14.26c0,6.785,4.397,8.543,11.434,8.732v2.576
			c-5.843-0.251-10.68-0.377-16.02-0.377c-3.77,0-7.287,0.125-9.863,0.377v-2.576c3.77-0.691,7.539-4.021,11.183-13.506
			l29.274-75.259c1.382,0.125,2.89,0.188,4.46,0.188c1.508,0,3.078-0.063,4.46-0.188L963.404,212.403z M918.488,151.53
			l-13.318,34.614h26.07L918.488,151.53z"/>
		<path fill="#FFFFFF" d="M1031.728,166.732c0,6.345-3.957,10.805-9.988,10.805c-6.03,0-9.611-3.267-9.611-8.292
			c0-4.711,2.45-7.79,5.654-9.925c-0.503-0.188-1.068-0.314-1.696-0.314c-0.565,0-1.194,0.126-1.822,0.314
			c-6.848,1.13-11.685,9.674-11.685,16.584v34.049c0,8.292,3.958,10.554,12.062,10.554v2.701
			c-3.957-0.125-12.313-0.502-20.416-0.502c-7.036,0-14.889,0.377-18.407,0.502v-2.701c5.969,0,8.229-2.073,8.229-9.235V170.69
			c0-7.727-2.01-11.37-8.229-11.37v-2.702c2.702,0.251,5.403,0.44,7.979,0.44c7.161,0,13.381-0.565,18.783-1.822v11.999
			c3.078-6.91,9.298-12.375,17.401-12.375C1028.336,154.859,1031.728,160.953,1031.728,166.732z"/>
		<path fill="#FFFFFF" d="M1079.07,156.744v2.576h-15.202v51.89c0,5.277,1.884,7.161,5.653,7.161c3.142,0,6.282-2.01,8.795-7.727
			l2.136,1.193c-2.827,7.664-8.104,13.193-17.59,13.193c-5.779,0-9.988-1.445-12.878-4.335c-3.706-3.77-4.648-8.983-4.648-17.967
			V159.32h-10.806v-2.576h10.806V139.72c7.225-0.063,13.192-1.256,18.532-4.146v21.17H1079.07z"/>
		<path fill="#FFFFFF" d="M1146.441,189.976c0,25.505-13.004,35.054-31.535,35.054c-18.47,0-31.474-9.549-31.474-35.054
			c0-25.442,13.004-35.117,31.474-35.117C1133.437,154.859,1146.441,164.534,1146.441,189.976z M1102.844,189.976
			c0,23.055,5.088,32.478,12.062,32.478c7.035,0,12.124-9.423,12.124-32.478c0-22.992-5.089-32.541-12.124-32.541
			C1107.932,157.435,1102.844,166.984,1102.844,189.976z"/>
		<path fill="#FFFFFF" d="M1198.939,206.749c9.36,0,17.401,3.33,17.401,13.82c0,12.376-11.685,26.824-37.253,26.824
			c-19.411,0-28.521-4.963-28.521-11.119c0-8.166,12.627-7.664,19.475-12.375h-3.016c-4.9,0-14.386-1.696-14.386-11.936
			c0-7.288,4.146-12.313,16.396-18.092c-8.606-2.827-14.135-8.858-14.135-18.532c0-14.197,11.81-20.479,27.641-20.479
			c3.393,0,6.659,0.314,9.611,0.879c-0.125-2.136,0-4.271,0.44-6.345c0.816-6.722,4.522-11.873,12.187-11.873
			c5.466,0,9.36,3.015,9.36,7.853c0,4.334-3.77,7.476-8.795,7.476c-5.465,0-7.978-2.701-9.611-7.224
			c-0.88,1.507-1.508,3.706-1.885,6.533c-0.063,0.628-0.063,1.256-0.063,1.885c0,0.691,0,1.382,0.063,2.073
			c9.863,2.513,16.396,8.669,16.396,19.223c0,14.135-11.873,20.479-27.704,20.479c-4.021,0-7.79-0.377-11.119-1.256
			c-4.335,2.576-7.35,4.648-7.35,7.915c0,2.953,1.821,4.272,5.276,4.272H1198.939z M1202.017,229.238
			c0-3.455-1.57-5.339-7.413-5.339h-22.112c-3.016,2.89-4.397,7.412-4.397,10.177c0,7.35,6.345,11.119,14.448,11.119
			C1192.908,245.195,1202.017,239.353,1202.017,229.238z M1173.936,175.339c0,13.758,3.267,18.155,8.606,18.155
			s8.606-4.397,8.606-18.155s-3.267-18.155-8.606-18.155S1173.936,161.581,1173.936,175.339z"/>
		<path fill="#FFFFFF" d="M1277.339,166.732c0,6.345-3.957,10.805-9.988,10.805c-6.03,0-9.611-3.267-9.611-8.292
			c0-4.711,2.45-7.79,5.654-9.925c-0.503-0.188-1.068-0.314-1.696-0.314c-0.565,0-1.194,0.126-1.822,0.314
			c-6.848,1.13-11.685,9.674-11.685,16.584v34.049c0,8.292,3.958,10.554,12.062,10.554v2.701
			c-3.957-0.125-12.313-0.502-20.416-0.502c-7.036,0-14.889,0.377-18.407,0.502v-2.701c5.969,0,8.229-2.073,8.229-9.235V170.69
			c0-7.727-2.01-11.37-8.229-11.37v-2.702c2.702,0.251,5.403,0.44,7.979,0.44c7.161,0,13.381-0.565,18.783-1.822v11.999
			c3.078-6.91,9.298-12.375,17.401-12.375C1273.948,154.859,1277.339,160.953,1277.339,166.732z"/>
		<path fill="#FFFFFF" d="M1329.566,160.639c3.77,3.895,4.586,9.046,4.586,18.03v34.991c0,4.146,0.691,5.717,2.764,5.717
			c1.822,0,3.267-1.068,4.712-2.199l1.319,2.199c-3.895,3.141-8.167,4.712-14.7,4.712c-9.423,0-12.313-4.9-12.376-10.429
			c-4.397,7.225-11.747,10.429-18.972,10.429c-9.611,0-16.271-5.277-16.271-14.638c0-9.297,6.157-14.511,18.093-18.909
			c9.485-3.581,16.898-6.031,16.898-11.559v-10.051c0-6.722-2.89-11.496-10.491-11.496c-3.078,0-6.847,0.879-9.172,3.141
			c4.586,1.57,7.602,4.9,7.602,10.114c0,5.34-4.146,9.235-10.491,9.235c-5.591,0-9.108-4.272-9.108-9.926
			c0-4.711,3.015-8.292,7.224-10.742c4.586-2.576,10.868-4.397,19.538-4.397C1319.012,154.859,1325.419,156.367,1329.566,160.639z
			 M1315.62,184.259c-1.193,1.947-3.644,3.644-7.979,6.345c-4.522,3.33-8.731,7.539-8.731,15.266c0,7.099,3.455,9.988,8.041,9.988
			c3.141,0,5.968-1.382,8.669-5.214V184.259z"/>
		<path fill="#FFFFFF" d="M1412.66,186.96c0,25.003-11.747,38.07-29.776,38.07c-5.277,0-9.988-1.445-13.192-4.146v12.878
			c0,7.979,4.335,10.052,11.559,10.052v2.701c-4.334-0.126-12.878-0.565-21.61-0.565c-6.281,0-13.004,0.439-16.207,0.565v-2.701
			c5.653,0,7.727-1.948,7.727-8.795v-64.266c0-7.727-2.01-11.308-8.229-11.308v-2.701c2.701,0.251,5.402,0.377,7.979,0.377
			c7.161,0,13.443-0.503,18.783-1.822v12.062c3.581-8.167,10.868-12.501,19.977-12.501
			C1402.735,154.859,1412.66,165.539,1412.66,186.96z M1393.249,189.474c0-21.862-4.397-29.086-11.119-29.086
			c-5.654,0-10.868,4.083-12.438,11.371v46.298c1.885,2.199,4.712,3.455,8.167,3.455
			C1389.291,221.512,1393.249,209.262,1393.249,189.474z"/>
		<path fill="#FFFFFF" d="M1442.583,166.795c4.272-8.732,11.999-11.936,21.045-11.936c7.351,0,11.56,2.01,14.197,5.025
			c2.827,3.267,4.021,7.979,4.021,16.71v34.677c0,7.162,2.262,9.235,8.229,9.235v2.701c-3.267-0.125-10.679-0.502-16.961-0.502
			c-6.597,0-13.569,0.377-16.711,0.502v-2.701c5.089,0,6.911-2.073,6.911-9.235v-40.017c0-6.408-1.508-10.742-7.916-10.742
			c-7.099,0-12.815,6.156-12.815,14.889v35.87c0,7.162,1.885,9.235,6.974,9.235v2.701c-3.016-0.125-9.675-0.502-15.957-0.502
			c-6.596,0-14.322,0.377-17.715,0.502v-2.701c5.968,0,8.229-2.073,8.229-9.235V137.96c0-7.664-2.011-11.308-8.229-11.308v-2.701
			c2.701,0.251,5.402,0.377,7.915,0.377c7.225,0,13.443-0.502,18.783-1.759V166.795z"/>
		<path fill="#FFFFFF" d="M1554.704,156.618v2.702c-3.204,0.816-6.157,3.392-8.858,11.056l-18.092,50.822l-4.963,13.821
			c-1.57,4.397-3.33,7.287-5.591,9.172c-2.576,2.136-6.22,3.203-11.245,3.203c-6.156,0-13.946-2.952-13.946-10.365
			c0-5.276,4.021-8.669,10.24-8.669c5.716,0,9.611,2.764,9.611,8.167c0,3.392-2.199,6.722-6.408,8.229
			c0.88,0.251,2.199,0.251,2.953,0.251c5.151,0,9.234-3.142,11.685-10.24l2.136-6.219l-27.265-62.004
			c-3.078-6.596-6.093-7.224-7.978-7.224v-2.702c5.591,0.565,11.811,0.817,17.652,0.817c6.848,0,12.689-0.377,17.841-0.817v2.702
			c-4.209,0-8.166,0.063-8.166,3.644c0,0.942,0.313,2.136,0.941,3.644l15.769,38.006l8.857-24.814
			c1.382-4.083,2.073-7.476,2.073-10.24c0-6.659-3.77-9.863-9.549-10.24v-2.702c3.958,0.377,8.983,0.503,12.438,0.503
			S1552.442,156.995,1554.704,156.618z"/>
	</g>
	<g clip-path="url(#SVGID_2_)">
		<path fill="#FFFFFF" d="M499.962,273.544c3.158-0.665,8.145-1.163,13.215-1.163c7.231,0,11.886,1.246,15.376,4.072
			c2.909,2.161,4.654,5.485,4.654,9.891c0,5.402-3.574,10.14-9.475,12.301v0.167c5.319,1.329,11.553,5.734,11.553,14.046
			c0,4.82-1.912,8.478-4.738,11.221c-3.906,3.573-10.223,5.236-19.366,5.236c-4.987,0-8.81-0.333-11.22-0.665V273.544z
			 M507.193,296.483h6.566c7.646,0,12.135-3.989,12.135-9.392c0-6.566-4.987-9.143-12.301-9.143c-3.324,0-5.236,0.249-6.399,0.499
			V296.483z M507.193,323.33c1.413,0.249,3.491,0.332,6.067,0.332c7.48,0,14.378-2.742,14.378-10.888
			c0-7.646-6.566-10.805-14.462-10.805h-5.984V323.33z"/>
		<path fill="#FFFFFF" d="M548.833,310.031c0.166,9.891,6.483,13.964,13.797,13.964c5.236,0,8.395-0.915,11.137-2.078l1.247,5.236
			c-2.577,1.163-6.982,2.493-13.382,2.493c-12.384,0-19.781-8.146-19.781-20.28s7.148-21.692,18.867-21.692
			c13.132,0,16.623,11.553,16.623,18.95c0,1.496-0.167,2.659-0.25,3.407H548.833z M570.276,304.795
			c0.083-4.654-1.912-11.885-10.14-11.885c-7.397,0-10.639,6.815-11.22,11.885H570.276z"/>
		<path fill="#FFFFFF" d="M585.403,321.335c2.161,1.413,5.984,2.909,9.642,2.909c5.319,0,7.813-2.66,7.813-5.984
			c0-3.49-2.078-5.402-7.48-7.397c-7.231-2.576-10.639-6.565-10.639-11.387c0-6.482,5.236-11.802,13.88-11.802
			c4.073,0,7.646,1.163,9.891,2.493l-1.829,5.319c-1.579-0.997-4.488-2.327-8.228-2.327c-4.322,0-6.732,2.493-6.732,5.485
			c0,3.325,2.41,4.821,7.646,6.815c6.981,2.66,10.556,6.15,10.556,12.135c0,7.065-5.486,12.052-15.044,12.052
			c-4.405,0-8.478-1.08-11.303-2.743L585.403,321.335z"/>
		<path fill="#FFFFFF" d="M619.314,301.72c0-5.152-0.166-9.309-0.333-13.132h6.566l0.333,6.898h0.167
			c2.992-4.903,7.729-7.813,14.295-7.813c9.725,0,17.039,8.229,17.039,20.446c0,14.462-8.81,21.609-18.285,21.609
			c-5.319,0-9.974-2.327-12.384-6.316h-0.166v21.859h-7.231V301.72z M626.545,312.441c0,1.081,0.166,2.078,0.333,2.992
			c1.33,5.07,5.735,8.562,10.971,8.562c7.729,0,12.218-6.317,12.218-15.543c0-8.062-4.239-14.96-11.969-14.96
			c-4.987,0-9.641,3.573-11.054,9.059c-0.249,0.915-0.499,1.995-0.499,2.992V312.441z"/>
		<path fill="#FFFFFF" d="M703.009,308.369c0,14.878-10.306,21.36-20.031,21.36c-10.888,0-19.283-7.979-19.283-20.695
			c0-13.465,8.811-21.36,19.948-21.36C695.196,287.674,703.009,296.068,703.009,308.369z M671.093,308.785
			c0,8.81,5.07,15.459,12.218,15.459c6.981,0,12.218-6.566,12.218-15.626c0-6.815-3.408-15.459-12.052-15.459
			C674.833,293.159,671.093,301.139,671.093,308.785z"/>
		<path fill="#FFFFFF" d="M719.466,307.039h0.166c0.998-1.413,2.411-3.158,3.574-4.571l11.802-13.88h8.81l-15.542,16.54
			l17.704,23.688h-8.894l-13.88-19.282l-3.74,4.155v15.127h-7.231v-59.012h7.231V307.039z"/>
		<path fill="#FFFFFF" d="M754.541,310.031c0.166,9.891,6.483,13.964,13.797,13.964c5.236,0,8.395-0.915,11.138-2.078l1.246,5.236
			c-2.576,1.163-6.981,2.493-13.381,2.493c-12.384,0-19.781-8.146-19.781-20.28s7.148-21.692,18.867-21.692
			c13.132,0,16.623,11.553,16.623,18.95c0,1.496-0.166,2.659-0.249,3.407H754.541z M775.984,304.795
			c0.083-4.654-1.912-11.885-10.14-11.885c-7.397,0-10.639,6.815-11.22,11.885H775.984z"/>
		<path fill="#FFFFFF" d="M814.465,311.195l-5.817,17.62h-7.48l19.033-56.02h8.727l19.116,56.02h-7.729l-5.984-17.62H814.465z
			 M832.833,305.543l-5.485-16.124c-1.246-3.657-2.078-6.981-2.909-10.223h-0.166c-0.831,3.324-1.745,6.732-2.826,10.14
			l-5.485,16.207H832.833z"/>
		<path fill="#FFFFFF" d="M856.023,301.139c0-4.738-0.083-8.811-0.332-12.551h6.399l0.249,7.896h0.333
			c1.828-5.402,6.233-8.81,11.137-8.81c0.831,0,1.413,0.083,2.078,0.249v6.898c-0.748-0.166-1.496-0.249-2.493-0.249
			c-5.153,0-8.811,3.906-9.808,9.392c-0.166,0.998-0.332,2.161-0.332,3.408v21.443h-7.231V301.139z"/>
		<path fill="#FFFFFF" d="M892.012,277.035v11.553h10.472v5.568h-10.472v21.693c0,4.986,1.412,7.813,5.485,7.813
			c1.911,0,3.324-0.249,4.238-0.498l0.333,5.485c-1.413,0.582-3.657,0.997-6.483,0.997c-3.407,0-6.15-1.08-7.896-3.075
			c-2.078-2.161-2.826-5.735-2.826-10.473v-21.942h-6.233v-5.568h6.233v-9.642L892.012,277.035z"/>
		<path fill="#FFFFFF" d="M963.655,328.815c-1.579-1.579-3.075-3.158-5.235-5.485c-4.821,4.488-10.224,6.399-16.374,6.399
			c-10.888,0-17.205-7.313-17.205-15.708c0-7.647,4.571-12.883,10.972-16.374v-0.249c-2.909-3.657-4.654-7.73-4.654-11.72
			c0-6.815,4.903-13.797,14.212-13.797c6.982,0,12.385,4.654,12.385,11.886c0,5.9-3.408,10.556-12.301,14.96v0.25
			c4.737,5.485,10.057,11.636,13.63,15.625c2.577-3.906,4.322-9.309,5.403-16.373h6.648c-1.496,8.81-3.906,15.792-8.062,20.695
			c2.992,3.158,5.9,6.316,9.226,9.891H963.655z M954.845,319.174c-3.325-3.656-9.559-10.472-15.792-17.62
			c-2.992,1.912-7.23,5.485-7.23,11.387c0,6.4,4.737,11.304,11.47,11.304C948.113,324.244,952.185,322.083,954.845,319.174z
			 M937.806,285.014c0,3.99,1.829,7.065,4.239,10.058c5.651-3.242,9.309-6.234,9.309-10.972c0-3.407-1.911-7.23-6.482-7.23
			C940.217,276.869,937.806,280.692,937.806,285.014z"/>
		<path fill="#FFFFFF" d="M996.485,273.461c3.491-0.582,8.063-1.08,13.881-1.08c7.147,0,12.384,1.662,15.708,4.654
			c3.075,2.659,4.904,6.732,4.904,11.719c0,5.07-1.496,9.06-4.322,11.969c-3.823,4.072-10.057,6.15-17.122,6.15
			c-2.16,0-4.155-0.083-5.817-0.499v22.441h-7.231V273.461z M1003.716,300.474c1.579,0.415,3.574,0.581,5.984,0.581
			c8.727,0,14.046-4.238,14.046-11.968c0-7.397-5.236-10.972-13.215-10.972c-3.158,0-5.569,0.25-6.815,0.582V300.474z"/>
		<path fill="#FFFFFF" d="M1040.453,269.804h7.314v25.101h0.166c1.163-2.077,2.992-3.906,5.236-5.152
			c2.161-1.247,4.737-2.078,7.48-2.078c5.402,0,14.046,3.324,14.046,17.205v23.937h-7.314V305.71c0-6.483-2.41-11.969-9.309-11.969
			c-4.737,0-8.478,3.324-9.808,7.313c-0.415,0.998-0.498,2.078-0.498,3.491v24.27h-7.314V269.804z"/>
		<path fill="#FFFFFF" d="M1122.986,308.369c0,14.878-10.307,21.36-20.03,21.36c-10.889,0-19.283-7.979-19.283-20.695
			c0-13.465,8.811-21.36,19.947-21.36C1115.173,287.674,1122.986,296.068,1122.986,308.369z M1091.07,308.785
			c0,8.81,5.07,15.459,12.218,15.459c6.981,0,12.218-6.566,12.218-15.626c0-6.815-3.407-15.459-12.052-15.459
			C1094.81,293.159,1091.07,301.139,1091.07,308.785z"/>
		<path fill="#FFFFFF" d="M1141.022,277.035v11.553h10.472v5.568h-10.472v21.693c0,4.986,1.412,7.813,5.485,7.813
			c1.911,0,3.324-0.249,4.238-0.498l0.333,5.485c-1.413,0.582-3.657,0.997-6.483,0.997c-3.407,0-6.15-1.08-7.896-3.075
			c-2.078-2.161-2.826-5.735-2.826-10.473v-21.942h-6.233v-5.568h6.233v-9.642L1141.022,277.035z"/>
		<path fill="#FFFFFF" d="M1196.126,308.369c0,14.878-10.307,21.36-20.03,21.36c-10.889,0-19.283-7.979-19.283-20.695
			c0-13.465,8.811-21.36,19.947-21.36C1188.314,287.674,1196.126,296.068,1196.126,308.369z M1164.21,308.785
			c0,8.81,5.07,15.459,12.218,15.459c6.981,0,12.218-6.566,12.218-15.626c0-6.815-3.407-15.459-12.052-15.459
			C1167.951,293.159,1164.21,301.139,1164.21,308.785z"/>
		<path fill="#FFFFFF" d="M1240.011,288.588c-0.167,2.909-0.333,6.15-0.333,11.055v23.354c0,9.226-1.828,14.878-5.734,18.369
			c-3.907,3.656-9.559,4.82-14.629,4.82c-4.82,0-10.14-1.164-13.381-3.325l1.828-5.568c2.66,1.662,6.815,3.158,11.803,3.158
			c7.48,0,12.966-3.906,12.966-14.046v-4.488h-0.166c-2.244,3.74-6.566,6.732-12.8,6.732c-9.974,0-17.122-8.478-17.122-19.615
			c0-13.631,8.894-21.36,18.119-21.36c6.981,0,10.805,3.657,12.551,6.981h0.166l0.332-6.067H1240.011z M1232.448,304.463
			c0-1.247-0.083-2.327-0.416-3.324c-1.33-4.239-4.903-7.73-10.223-7.73c-6.982,0-11.969,5.901-11.969,15.21
			c0,7.896,3.989,14.462,11.886,14.462c4.487,0,8.561-2.825,10.14-7.479c0.415-1.247,0.582-2.66,0.582-3.907V304.463z"/>
		<path fill="#FFFFFF" d="M1251.813,301.139c0-4.738-0.083-8.811-0.332-12.551h6.399l0.249,7.896h0.333
			c1.828-5.402,6.233-8.81,11.137-8.81c0.831,0,1.413,0.083,2.078,0.249v6.898c-0.748-0.166-1.496-0.249-2.493-0.249
			c-5.153,0-8.811,3.906-9.808,9.392c-0.166,0.998-0.333,2.161-0.333,3.408v21.443h-7.23V301.139z"/>
		<path fill="#FFFFFF" d="M1301.265,328.815l-0.581-5.07h-0.25c-2.244,3.158-6.565,5.984-12.301,5.984
			c-8.146,0-12.301-5.734-12.301-11.553c0-9.725,8.644-15.044,24.187-14.961v-0.831c0-3.324-0.915-9.309-9.143-9.309
			c-3.74,0-7.646,1.164-10.473,2.992l-1.662-4.82c3.324-2.161,8.145-3.574,13.215-3.574c12.301,0,15.293,8.395,15.293,16.457v15.043
			c0,3.491,0.166,6.898,0.665,9.642H1301.265z M1300.185,308.286c-7.979-0.166-17.039,1.247-17.039,9.06
			c0,4.737,3.159,6.981,6.899,6.981c5.235,0,8.561-3.324,9.724-6.732c0.25-0.748,0.416-1.579,0.416-2.327V308.286z"/>
		<path fill="#FFFFFF" d="M1319.052,301.72c0-5.152-0.166-9.309-0.332-13.132h6.565l0.333,6.898h0.166
			c2.992-4.903,7.729-7.813,14.296-7.813c9.724,0,17.038,8.229,17.038,20.446c0,14.462-8.811,21.609-18.285,21.609
			c-5.319,0-9.974-2.327-12.384-6.316h-0.166v21.859h-7.231V301.72z M1326.284,312.441c0,1.081,0.166,2.078,0.332,2.992
			c1.33,5.07,5.734,8.562,10.971,8.562c7.73,0,12.218-6.317,12.218-15.543c0-8.062-4.238-14.96-11.968-14.96
			c-4.987,0-9.642,3.573-11.055,9.059c-0.249,0.915-0.498,1.995-0.498,2.992V312.441z"/>
		<path fill="#FFFFFF" d="M1366.343,269.804h7.314v25.101h0.166c1.163-2.077,2.992-3.906,5.236-5.152
			c2.161-1.247,4.737-2.078,7.48-2.078c5.402,0,14.046,3.324,14.046,17.205v23.937h-7.314V305.71c0-6.483-2.41-11.969-9.309-11.969
			c-4.737,0-8.478,3.324-9.808,7.313c-0.415,0.998-0.498,2.078-0.498,3.491v24.27h-7.314V269.804z"/>
		<path fill="#FFFFFF" d="M1413.136,288.588l8.811,23.771c0.914,2.66,1.912,5.818,2.576,8.229h0.167
			c0.748-2.41,1.579-5.485,2.576-8.395l7.979-23.604h7.729l-10.972,28.675c-5.236,13.797-8.81,20.861-13.797,25.184
			c-3.574,3.158-7.147,4.405-8.977,4.737l-1.828-6.15c1.828-0.582,4.239-1.745,6.399-3.574c1.995-1.579,4.488-4.404,6.15-8.145
			c0.333-0.748,0.582-1.33,0.582-1.746c0-0.415-0.166-0.997-0.498-1.911l-14.878-37.069H1413.136z"/>
	</g>
</g>
</svg>
